<svg width="256" height="61" viewBox="0 0 256 61" fill="none" xmlns="http://www.w3.org/2000/svg">
<path d="M212.4 39.4062C215.207 39.4062 217.613 40.4232 219.619 42.4571C221.653 44.491 222.669 46.9117 222.669 49.719C222.669 52.5264 221.667 54.9184 219.662 56.895C217.656 58.843 215.236 59.8169 212.4 59.8169C209.449 59.8169 207.014 58.8716 205.095 56.9809C203.204 55.0616 202.259 52.6267 202.259 49.6761C202.259 46.8114 203.247 44.3908 205.224 42.4141C207.2 40.4089 209.592 39.4062 212.4 39.4062Z" fill="#5FD8FF"/>
<path d="M245.73 39.4062C248.537 39.4062 250.943 40.4232 252.949 42.4571C254.983 44.491 256 46.9117 256 49.719C256 52.5264 254.997 54.9184 252.992 56.895C250.986 58.843 248.566 59.8169 245.73 59.8169C242.779 59.8169 240.344 58.8716 238.425 56.9809C236.534 55.0616 235.589 52.6267 235.589 49.6761C235.589 46.8114 236.577 44.3908 238.554 42.4141C240.53 40.4089 242.922 39.4062 245.73 39.4062Z" fill="#5FD8FF"/>
<path d="M179.056 39.4062C181.863 39.4062 184.27 40.4232 186.275 42.4571C188.309 44.491 189.326 46.9117 189.326 49.719C189.326 52.5264 188.323 54.9184 186.318 56.895C184.313 58.843 181.892 59.8169 179.056 59.8169C176.105 59.8169 173.67 58.8716 171.751 56.9809C169.86 55.0616 168.915 52.6267 168.915 49.6761C168.915 46.8114 169.903 44.3908 171.88 42.4141C173.857 40.4089 176.249 39.4062 179.056 39.4062Z" fill="#5FD8FF"/>
<path d="M157.7 58.6535H141.629V35.5357C141.629 33.7596 141.443 32.5278 141.07 31.8403C140.698 31.1528 140.025 30.809 139.051 30.809C137.246 30.809 136.344 32.3989 136.344 35.5787V58.6535H120.273V35.5357C120.273 33.7596 120.072 32.5278 119.671 31.8403C119.299 31.1528 118.626 30.809 117.652 30.809C115.876 30.809 114.988 32.3989 114.988 35.5787V58.6535H98.917V32.27C98.917 27.4574 100.536 23.3752 103.773 20.0236C107.01 16.6433 110.934 14.9531 115.546 14.9531C120.302 14.9531 124.57 16.9584 128.351 20.9689C132.562 16.9584 136.773 14.9531 140.985 14.9531C146.341 14.9531 150.638 16.9011 153.875 20.797C156.425 23.8336 157.7 28.2595 157.7 34.0747V58.6535Z" fill="#5FD8FF"/>
<path d="M67.892 0V17.9184C70.6135 15.9418 73.3349 14.9535 76.0563 14.9535C80.1814 14.9535 83.4471 16.4431 85.8534 19.4224C88.2884 22.4016 89.5059 26.4265 89.5059 31.4969V58.6539H73.4351V36.0088C73.4351 34.1754 73.2346 32.9436 72.8336 32.3134C72.4612 31.6831 71.7163 31.368 70.5991 31.368C68.7944 31.368 67.892 32.7001 67.892 35.3642V58.6539H51.8213V0H67.892Z" fill="#5FD8FF"/>
<path d="M42.4113 0V38.0283C42.4113 44.7317 40.406 50.0886 36.3955 54.0991C32.4136 58.1096 27.0997 60.1149 20.4537 60.1149C13.8363 60.1149 8.76586 58.1669 5.24233 54.271C1.74744 50.375 0 44.7746 0 37.4697V0H17.4458V37.4268C17.4458 41.0076 18.7205 42.798 21.2701 42.798C23.7337 42.798 24.9655 41.0076 24.9655 37.4268V0H42.4113Z" fill="#5FD8FF"/>
</svg>
